STARTFONT 2.1
COMMENT
COMMENT Converted from OpenType font "Vera.ttf" by "otf2bdf 3.0".
COMMENT
FONT -FreeType-Bitstream Vera Sans-Medium-R-Normal--17-120-100-100-P-86-ISO10646-1
SIZE 12 100 100
FONTBOUNDINGBOX 25 20 -3 -4
STARTPROPERTIES 19
FOUNDRY "FreeType"
FAMILY_NAME "Bitstream Vera Sans"
WEIGHT_NAME "Medium"
SLANT "R"
SETWIDTH_NAME "Normal"
ADD_STYLE_NAME ""
PIXEL_SIZE 17
POINT_SIZE 120
RESOLUTION_X 100
RESOLUTION_Y 100
SPACING "P"
AVERAGE_WIDTH 86
CHARSET_REGISTRY "ISO10646"
CHARSET_ENCODING "1"
FONT_ASCENT 15
FONT_DESCENT 4
COPYRIGHT "Copyright (c) 2003 by Bitstream, Inc. All Rights Reserved."
_OTF_FONTFILE "Vera.ttf"
_OTF_PSNAME "BitstreamVeraSans-Roman"
ENDPROPERTIES
CHARS 256
STARTCHAR 0020
ENCODING 32
SWIDTH 300 0
DWIDTH 5 0
BBX 0 0 0 0
BITMAP
ENDCHAR
STARTCHAR 0021
ENCODING 33
SWIDTH 420 0
DWIDTH 7 0
BBX 2 12 3 0
BITMAP
C0
C0
C0
C0
C0
C0
C0
C0
00
00
C0
C0
ENDCHAR
STARTCHAR 0022
ENCODING 34
SWIDTH 480 0
DWIDTH 8 0
BBX 4 5 2 7
BITMAP
90
90
90
90
90
ENDCHAR
STARTCHAR 0023
ENCODING 35
SWIDTH 840 0
DWIDTH 14 0
BBX 12 11 1 0
BITMAP
0440
0CC0
0C80
7FF0
0980
1980
1900
FFE0
1300
3300
2200
ENDCHAR
STARTCHAR 0024
ENCODING 36
SWIDTH 660 0
DWIDTH 11 0
BBX 9 16 1 -3
BITMAP
0800
0800
3E00
E900
C800
C800
FC00
3F00
0B80
0980
0980
8B80
7E00
0800
0800
0800
ENDCHAR
STARTCHAR 0025
ENCODING 37
SWIDTH 960 0
DWIDTH 16 0
BBX 14 12 1 0
BITMAP
7820
CC40
CC40
CC80
CD00
CD78
7ACC
02CC
04CC
08CC
08CC
1078
ENDCHAR
STARTCHAR 0026
ENCODING 38
SWIDTH 780 0
DWIDTH 13 0
BBX 11 12 1 0
BITMAP
3C00
6200
6000
6000
7000
7860
DC60
CE40
C7C0
C380
61C0
3E60
ENDCHAR
STARTCHAR 0027
ENCODING 39
SWIDTH 300 0
DWIDTH 5 0
BBX 1 5 2 7
BITMAP
80
80
80
80
80
ENDCHAR
STARTCHAR 0028
ENCODING 40
SWIDTH 420 0
DWIDTH 7 0
BBX 4 15 1 -2
BITMAP
30
20
60
60
C0
C0
C0
C0
C0
C0
C0
60
60
20
30
ENDCHAR
STARTCHAR 0029
ENCODING 41
SWIDTH 420 0
DWIDTH 7 0
BBX 4 15 1 -2
BITMAP
C0
40
60
60
30
30
30
30
30
30
30
60
60
40
C0
ENDCHAR
STARTCHAR 002A
ENCODING 42
SWIDTH 540 0
DWIDTH 9 0
BBX 7 8 1 4
BITMAP
10
10
92
7C
38
D6
10
10
ENDCHAR
STARTCHAR 002B
ENCODING 43
SWIDTH 840 0
DWIDTH 14 0
BBX 12 12 2 0
BITMAP
0600
0600
0600
0600
0600
FFF0
FFF0
0600
0600
0600
0600
0600
ENDCHAR
STARTCHAR 002C
ENCODING 44
SWIDTH 300 0
DWIDTH 5 0
BBX 3 4 1 -2
BITMAP
60
60
40
80
ENDCHAR
STARTCHAR 002D
ENCODING 45
SWIDTH 360 0
DWIDTH 6 0
BBX 4 2 1 4
BITMAP
F0
F0
ENDCHAR
STARTCHAR 002E
ENCODING 46
SWIDTH 300 0
DWIDTH 5 0
BBX 2 2 2 0
BITMAP
C0
C0
ENDCHAR
STARTCHAR 002F
ENCODING 47
SWIDTH 360 0
DWIDTH 6 0
BBX 6 14 0 -2
BITMAP
04
08
08
08
10
10
10
20
20
20
40
40
40
80
ENDCHAR
STARTCHAR 0030
ENCODING 48
SWIDTH 660 0
DWIDTH 11 0
BBX 9 12 1 0
BITMAP
3E00
6300
6300
C180
C180
C180
C180
C180
C180
6300
6300
3E00
ENDCHAR
STARTCHAR 0031
ENCODING 49
SWIDTH 660 0
DWIDTH 11 0
BBX 8 12 2 0
BITMAP
38
D8
18
18
18
18
18
18
18
18
18
FF
ENDCHAR
STARTCHAR 0032
ENCODING 50
SWIDTH 660 0
DWIDTH 11 0
BBX 8 12 1 0
BITMAP
7C
C6
83
03
03
06
0C
18
30
60
C0
FF
ENDCHAR
STARTCHAR 0033
ENCODING 51
SWIDTH 660 0
DWIDTH 11 0
BBX 8 12 1 0
BITMAP
7C
87
03
03
06
3C
06
03
03
03
86
7C
ENDCHAR
STARTCHAR 0034
ENCODING 52
SWIDTH 660 0
DWIDTH 11 0
BBX 9 12 1 0
BITMAP
0600
0E00
1600
1600
2600
4600
4600
8600
FF80
0600
0600
0600
ENDCHAR
STARTCHAR 0035
ENCODING 53
SWIDTH 660 0
DWIDTH 11 0
BBX 8 12 1 0
BITMAP
7E
60
60
60
7C
46
03
03
03
03
86
7C
ENDCHAR
STARTCHAR 0036
ENCODING 54
SWIDTH 660 0
DWIDTH 11 0
BBX 9 12 1 0
BITMAP
1E00
3100
6000
C000
DE00
E300
C180
C180
C180
4180
6300
3E00
ENDCHAR
STARTCHAR 0037
ENCODING 55
SWIDTH 660 0
DWIDTH 11 0
BBX 8 12 1 0
BITMAP
FF
03
06
06
06
0C
0C
0C
18
18
18
30
ENDCHAR
STARTCHAR 0038
ENCODING 56
SWIDTH 660 0
DWIDTH 11 0
BBX 9 12 1 0
BITMAP
3E00
E380
C180
C180
6300
3E00
6300
C180
C180
C180
6300
3E00
ENDCHAR
STARTCHAR 0039
ENCODING 57
SWIDTH 660 0
DWIDTH 11 0
BBX 9 12 1 0
BITMAP
3E00
6300
C100
C180
C180
C180
6380
3D80
0180
0300
4600
3C00
ENDCHAR
STARTCHAR 003A
ENCODING 58
SWIDTH 360 0
DWIDTH 6 0
BBX 2 9 2 0
BITMAP
C0
C0
00
00
00
00
00
C0
C0
ENDCHAR
STARTCHAR 003B
ENCODING 59
SWIDTH 360 0
DWIDTH 6 0
BBX 3 11 1 -2
BITMAP
60
60
00
00
00
00
00
60
60
40
80
ENDCHAR
STARTCHAR 003C
ENCODING 60
SWIDTH 840 0
DWIDTH 14 0
BBX 11 9 2 1
BITMAP
0020
01E0
0FC0
7E00
F000
7E00
0FC0
01E0
0020
ENDCHAR
STARTCHAR 003D
ENCODING 61
SWIDTH 840 0
DWIDTH 14 0
BBX 11 6 2 2
BITMAP
FFE0
FFE0
0000
0000
FFE0
FFE0
ENDCHAR
STARTCHAR 003E
ENCODING 62
SWIDTH 840 0
DWIDTH 14 0
BBX 11 9 2 1
BITMAP
8000
F000
7E00
0FC0
01E0
0FC0
7E00
F000
8000
ENDCHAR
STARTCHAR 003F
ENCODING 63
SWIDTH 540 0
DWIDTH 9 0
BBX 7 12 1 0
BITMAP
7C
86
06
06
0C
18
30
30
30
00
30
30
ENDCHAR
STARTCHAR 0040
ENCODING 64
SWIDTH 1020 0
DWIDTH 17 0
BBX 15 15 1 -3
BITMAP
07E0
1830
301C
600C
63C6
C6C6
C6C6
C6C6
C6CC
C6D8
63E0
6000
3000
1820
0FC0
ENDCHAR
STARTCHAR 0041
ENCODING 65
SWIDTH 660 0
DWIDTH 11 0
BBX 11 12 0 0
BITMAP
0E00
0E00
0E00
1B00
1B00
3180
3180
3F80
60C0
60C0
60C0
C060
ENDCHAR
STARTCHAR 0042
ENCODING 66
SWIDTH 720 0
DWIDTH 12 0
BBX 9 12 2 0
BITMAP
FE00
C300
C300
C300
C300
FC00
C300
C180
C180
C180
C300
FE00
ENDCHAR
STARTCHAR 0043
ENCODING 67
SWIDTH 720 0
DWIDTH 12 0
BBX 10 12 1 0
BITMAP
1F80
30C0
6000
C000
C000
C000
C000
C000
C000
6000
30C0
1F80
ENDCHAR
STARTCHAR 0044
ENCODING 68
SWIDTH 780 0
DWIDTH 13 0
BBX 10 12 2 0
BITMAP
FE00
C300
C180
C0C0
C0C0
C0C0
C0C0
C0C0
C0C0
C180
C300
FE00
ENDCHAR
STARTCHAR 0045
ENCODING 69
SWIDTH 660 0
DWIDTH 11 0
BBX 8 12 2 0
BITMAP
FF
C0
C0
C0
C0
FF
C0
C0
C0
C0
C0
FF
ENDCHAR
STARTCHAR 0046
ENCODING 70
SWIDTH 600 0
DWIDTH 10 0
BBX 7 12 2 0
BITMAP
FE
C0
C0
C0
C0
FC
C0
C0
C0
C0
C0
C0
ENDCHAR
STARTCHAR 0047
ENCODING 71
SWIDTH 780 0
DWIDTH 13 0
BBX 11 12 1 0
BITMAP
1FC0
3060
6020
C000
C000
C000
C3E0
C060
C060
6060
3060
1FC0
ENDCHAR
STARTCHAR 0048
ENCODING 72
SWIDTH 780 0
DWIDTH 13 0
BBX 9 12 2 0
BITMAP
C180
C180
C180
C180
C180
FF80
C180
C180
C180
C180
C180
C180
ENDCHAR
STARTCHAR 0049
ENCODING 73
SWIDTH 360 0
DWIDTH 6 0
BBX 2 12 2 0
BITMAP
C0
C0
C0
C0
C0
C0
C0
C0
C0
C0
C0
C0
ENDCHAR
STARTCHAR 004A
ENCODING 74
SWIDTH 360 0
DWIDTH 6 0
BBX 5 15 -1 -3
BITMAP
18
18
18
18
18
18
18
18
18
18
18
18
18
30
E0
ENDCHAR
STARTCHAR 004B
ENCODING 75
SWIDTH 720 0
DWIDTH 12 0
BBX 10 12 2 0
BITMAP
C180
C300
C600
CC00
D800
F000
D800
CC00
C600
C300
C180
C0C0
ENDCHAR
STARTCHAR 004C
ENCODING 76
SWIDTH 540 0
DWIDTH 9 0
BBX 7 12 2 0
BITMAP
C0
C0
C0
C0
C0
C0
C0
C0
C0
C0
C0
FE
ENDCHAR
STARTCHAR 004D
ENCODING 77
SWIDTH 900 0
DWIDTH 15 0
BBX 11 12 2 0
BITMAP
E0E0
E0E0
F1E0
F1E0
DB60
DB60
CA60
CE60
CE60
C460
C060
C060
ENDCHAR
STARTCHAR 004E
ENCODING 78
SWIDTH 780 0
DWIDTH 13 0
BBX 9 12 2 0
BITMAP
C180
E180
E180
F180
D980
D980
CD80
CD80
C780
C780
C380
C180
ENDCHAR
STARTCHAR 004F
ENCODING 79
SWIDTH 780 0
DWIDTH 13 0
BBX 11 12 1 0
BITMAP
1F00
3180
60C0
C060
C060
C060
C060
C060
C060
60C0
3180
1F00
ENDCHAR
STARTCHAR 0050
ENCODING 80
SWIDTH 600 0
DWIDTH 10 0
BBX 8 12 2 0
BITMAP
FC
C6
C3
C3
C3
C6
FC
C0
C0
C0
C0
C0
ENDCHAR
STARTCHAR 0051
ENCODING 81
SWIDTH 780 0
DWIDTH 13 0
BBX 11 14 1 -2
BITMAP
1F00
3180
60C0
C060
C060
C060
C060
C060
C060
60C0
3180
1F00
0300
0180
ENDCHAR
STARTCHAR 0052
ENCODING 82
SWIDTH 720 0
DWIDTH 12 0
BBX 10 12 2 0
BITMAP
FC00
C600
C300
C300
C300
C600
FC00
C600
C300
C300
C180
C1C0
ENDCHAR
STARTCHAR 0053
ENCODING 83
SWIDTH 660 0
DWIDTH 11 0
BBX 9 12 1 0
BITMAP
3E00
6300
C000
C000
F000
7E00
0F00
0180
0180
8180
C300
7E00
ENDCHAR
STARTCHAR 0054
ENCODING 84
SWIDTH 600 0
DWIDTH 10 0
BBX 10 12 0 0
BITMAP
FFC0
0C00
0C00
0C00
0C00
0C00
0C00
0C00
0C00
0C00
0C00
0C00
ENDCHAR
STARTCHAR 0055
ENCODING 85
SWIDTH 780 0
DWIDTH 13 0
BBX 9 12 2 0
BITMAP
C180
C180
C180
C180
C180
C180
C180
C180
C180
C180
6300
3E00
ENDCHAR
STARTCHAR 0056
ENCODING 86
SWIDTH 660 0
DWIDTH 11 0
BBX 11 12 0 0
BITMAP
C060
60C0
60C0
60C0
3180
3180
3180
1B00
1B00
0E00
0E00
0E00
ENDCHAR
STARTCHAR 0057
ENCODING 87
SWIDTH 1080 0
DWIDTH 18 0
BBX 16 12 1 0
BITMAP
C183
C183
6186
63C6
63C6
6246
326C
366C
366C
1428
1C38
1C38
ENDCHAR
STARTCHAR 0058
ENCODING 88
SWIDTH 780 0
DWIDTH 13 0
BBX 11 12 1 0
BITMAP
E0E0
60C0
3180
1B00
1B00
0E00
0E00
1B00
1B00
3180
60C0
E0E0
ENDCHAR
STARTCHAR 0059
ENCODING 89
SWIDTH 600 0
DWIDTH 10 0
BBX 10 12 0 0
BITMAP
E1C0
6180
3300
3300
1E00
0C00
0C00
0C00
0C00
0C00
0C00
0C00
ENDCHAR
STARTCHAR 005A
ENCODING 90
SWIDTH 720 0
DWIDTH 12 0
BBX 10 12 1 0
BITMAP
FFC0
01C0
0380
0300
0600
0E00
1C00
1800
3000
7000
E000
FFC0
ENDCHAR
STARTCHAR 005B
ENCODING 91
SWIDTH 420 0
DWIDTH 7 0
BBX 4 15 1 -2
BITMAP
F0
C0
C0
C0
C0
C0
C0
C0
C0
C0
C0
C0
C0
C0
F0
ENDCHAR
STARTCHAR 005C
ENCODING 92
SWIDTH 360 0
DWIDTH 6 0
BBX 6 14 0 -2
BITMAP
80
40
40
40
20
20
20
10
10
10
08
08
08
04
ENDCHAR
STARTCHAR 005D
ENCODING 93
SWIDTH 420 0
DWIDTH 7 0
BBX 4 15 2 -2
BITMAP
F0
30
30
30
30
30
30
30
30
30
30
30
30
30
F0
ENDCHAR
STARTCHAR 005E
ENCODING 94
SWIDTH 840 0
DWIDTH 14 0
BBX 11 5 2 7
BITMAP
0E00
1B00
3180
60C0
C060
ENDCHAR
STARTCHAR 005F
ENCODING 95
SWIDTH 540 0
DWIDTH 9 0
BBX 9 1 0 -4
BITMAP
FF80
ENDCHAR
STARTCHAR 0060
ENCODING 96
SWIDTH 540 0
DWIDTH 9 0
BBX 4 3 1 11
BITMAP
C0
60
30
ENDCHAR
STARTCHAR 0061
ENCODING 97
SWIDTH 600 0
DWIDTH 10 0
BBX 8 9 1 0
BITMAP
3E
47
03
3F
E3
C3
C3
C7
7B
ENDCHAR
STARTCHAR 0062
ENCODING 98
SWIDTH 600 0
DWIDTH 10 0
BBX 8 13 2 0
BITMAP
C0
C0
C0
C0
DC
E6
C3
C3
C3
C3
C3
E6
DC
ENDCHAR
STARTCHAR 0063
ENCODING 99
SWIDTH 480 0
DWIDTH 8 0
BBX 7 9 1 0
BITMAP
3C
62
C0
C0
C0
C0
C0
62
3C
ENDCHAR
STARTCHAR 0064
ENCODING 100
SWIDTH 600 0
DWIDTH 10 0
BBX 8 13 1 0
BITMAP
03
03
03
03
3B
67
C3
C3
C3
C3
C3
67
3B
ENDCHAR
STARTCHAR 0065
ENCODING 101
SWIDTH 600 0
DWIDTH 10 0
BBX 9 9 1 0
BITMAP
3E00
6300
C180
C180
FF80
C000
C000
6080
1F00
ENDCHAR
STARTCHAR 0066
ENCODING 102
SWIDTH 360 0
DWIDTH 6 0
BBX 6 13 1 0
BITMAP
3C
60
60
60
FC
60
60
60
60
60
60
60
60
ENDCHAR
STARTCHAR 0067
ENCODING 103
SWIDTH 600 0
DWIDTH 10 0
BBX 8 13 1 -4
BITMAP
3B
67
C3
C3
C3
C3
C3
67
3B
03
03
46
3C
ENDCHAR
STARTCHAR 0068
ENCODING 104
SWIDTH 660 0
DWIDTH 11 0
BBX 8 13 2 0
BITMAP
C0
C0
C0
C0
DE
E7
C3
C3
C3
C3
C3
C3
C3
ENDCHAR
STARTCHAR 0069
ENCODING 105
SWIDTH 300 0
DWIDTH 5 0
BBX 2 13 2 0
BITMAP
C0
C0
00
00
C0
C0
C0
C0
C0
C0
C0
C0
C0
ENDCHAR
STARTCHAR 006A
ENCODING 106
SWIDTH 300 0
DWIDTH 5 0
BBX 4 17 0 -4
BITMAP
30
30
00
00
30
30
30
30
30
30
30
30
30
30
30
30
E0
ENDCHAR
STARTCHAR 006B
ENCODING 107
SWIDTH 600 0
DWIDTH 10 0
BBX 8 13 2 0
BITMAP
C0
C0
C0
C0
C6
CC
D8
F0
F0
D8
CC
C6
C3
ENDCHAR
STARTCHAR 006C
ENCODING 108
SWIDTH 300 0
DWIDTH 5 0
BBX 2 13 2 0
BITMAP
C0
C0
C0
C0
C0
C0
C0
C0
C0
C0
C0
C0
C0
ENDCHAR
STARTCHAR 006D
ENCODING 109
SWIDTH 1020 0
DWIDTH 17 0
BBX 14 9 2 0
BITMAP
DE78
E698
C30C
C30C
C30C
C30C
C30C
C30C
C30C
ENDCHAR
STARTCHAR 006E
ENCODING 110
SWIDTH 660 0
DWIDTH 11 0
BBX 8 9 2 0
BITMAP
DE
E7
C3
C3
C3
C3
C3
C3
C3
ENDCHAR
STARTCHAR 006F
ENCODING 111
SWIDTH 600 0
DWIDTH 10 0
BBX 9 9 1 0
BITMAP
3E00
6300
C180
C180
C180
C180
C180
6300
3E00
ENDCHAR
STARTCHAR 0070
ENCODING 112
SWIDTH 600 0
DWIDTH 10 0
BBX 8 13 2 -4
BITMAP
DC
E6
C3
C3
C3
C3
C3
E6
DC
C0
C0
C0
C0
ENDCHAR
STARTCHAR 0071
ENCODING 113
SWIDTH 600 0
DWIDTH 10 0
BBX 8 13 1 -4
BITMAP
3B
67
C3
C3
C3
C3
C3
67
3B
03
03
03
03
ENDCHAR
STARTCHAR 0072
ENCODING 114
SWIDTH 420 0
DWIDTH 7 0
BBX 5 9 2 0
BITMAP
D8
E0
C0
C0
C0
C0
C0
C0
C0
ENDCHAR
STARTCHAR 0073
ENCODING 115
SWIDTH 480 0
DWIDTH 8 0
BBX 7 9 1 0
BITMAP
7C
C2
C0
F0
7C
0E
06
86
7C
ENDCHAR
STARTCHAR 0074
ENCODING 116
SWIDTH 420 0
DWIDTH 7 0
BBX 6 12 1 0
BITMAP
60
60
60
FC
60
60
60
60
60
60
60
3C
ENDCHAR
STARTCHAR 0075
ENCODING 117
SWIDTH 660 0
DWIDTH 11 0
BBX 8 9 2 0
BITMAP
C3
C3
C3
C3
C3
C3
C3
E7
7B
ENDCHAR
STARTCHAR 0076
ENCODING 118
SWIDTH 600 0
DWIDTH 10 0
BBX 9 9 1 0
BITMAP
C180
C180
6300
6300
6300
3600
3600
1C00
1C00
ENDCHAR
STARTCHAR 0077
ENCODING 119
SWIDTH 900 0
DWIDTH 15 0
BBX 12 9 2 0
BITMAP
C630
C630
6660
6F60
6960
6960
39C0
30C0
30C0
ENDCHAR
STARTCHAR 0078
ENCODING 120
SWIDTH 600 0
DWIDTH 10 0
BBX 9 9 1 0
BITMAP
E380
6300
3600
1C00
1C00
1C00
3600
6300
E380
ENDCHAR
STARTCHAR 0079
ENCODING 121
SWIDTH 600 0
DWIDTH 10 0
BBX 9 13 1 -4
BITMAP
C180
C180
6300
6300
3300
3600
1E00
1C00
0C00
0C00
1800
1800
7000
ENDCHAR
STARTCHAR 007A
ENCODING 122
SWIDTH 480 0
DWIDTH 8 0
BBX 7 9 1 0
BITMAP
FE
0E
0C
18
38
30
60
E0
FE
ENDCHAR
STARTCHAR 007B
ENCODING 123
SWIDTH 660 0
DWIDTH 11 0
BBX 7 16 2 -3
BITMAP
0E
18
18
18
18
18
18
E0
38
18
18
18
18
18
18
0E
ENDCHAR
STARTCHAR 007C
ENCODING 124
SWIDTH 360 0
DWIDTH 6 0
BBX 1 17 2 -4
BITMAP
80
80
80
80
80
80
80
80
80
80
80
80
80
80
80
80
80
ENDCHAR
STARTCHAR 007D
ENCODING 125
SWIDTH 660 0
DWIDTH 11 0
BBX 7 16 3 -3
BITMAP
E0
30
30
30
30
30
30
0E
38
30
30
30
30
30
30
E0
ENDCHAR
STARTCHAR 007E
ENCODING 126
SWIDTH 840 0
DWIDTH 14 0
BBX 11 3 2 4
BITMAP
7C20
FFE0
87C0
ENDCHAR
STARTCHAR 00A0
ENCODING 160
SWIDTH 660 0
DWIDTH 11 0
BBX 0 0 0 0
BITMAP
ENDCHAR
STARTCHAR 00A1
ENCODING 161
SWIDTH 420 0
DWIDTH 7 0
BBX 2 12 3 0
BITMAP
C0
C0
00
00
C0
C0
C0
C0
C0
C0
C0
C0
ENDCHAR
STARTCHAR 00A2
ENCODING 162
SWIDTH 660 0
DWIDTH 11 0
BBX 7 13 1 -2
BITMAP
08
08
3C
6A
C8
C8
C8
C8
C8
6A
3C
08
08
ENDCHAR
STARTCHAR 00A3
ENCODING 163
SWIDTH 660 0
DWIDTH 11 0
BBX 9 12 1 0
BITMAP
0F00
1880
3000
3000
3000
3000
FE00
3000
3000
3000
3000
FF80
ENDCHAR
STARTCHAR 00A4
ENCODING 164
SWIDTH 660 0
DWIDTH 11 0
BBX 9 9 1 2
BITMAP
C180
7F00
3600
6300
6300
6300
3600
7F00
C180
ENDCHAR
STARTCHAR 00A5
ENCODING 165
SWIDTH 660 0
DWIDTH 11 0
BBX 10 12 1 0
BITMAP
E1C0
6180
3300
3300
7F80
0C00
0C00
7F80
0C00
0C00
0C00
0C00
ENDCHAR
STARTCHAR 00A6
ENCODING 166
SWIDTH 360 0
DWIDTH 6 0
BBX 1 14 2 -2
BITMAP
80
80
80
80
80
80
00
00
80
80
80
80
80
80
ENDCHAR
STARTCHAR 00A7
ENCODING 167
SWIDTH 540 0
DWIDTH 9 0
BBX 7 14 1 -2
BITMAP
3C
60
60
20
78
CC
C6
C6
66
3C
08
0C
0C
78
ENDCHAR
STARTCHAR 00A8
ENCODING 168
SWIDTH 540 0
DWIDTH 9 0
BBX 6 2 2 11
BITMAP
CC
CC
ENDCHAR
STARTCHAR 00A9
ENCODING 169
SWIDTH 1020 0
DWIDTH 17 0
BBX 12 12 2 0
BITMAP
0F00
30C0
4020
4F20
9810
9010
9010
9810
4F20
4020
30C0
0F00
ENDCHAR
STARTCHAR 00AA
ENCODING 170
SWIDTH 480 0
DWIDTH 8 0
BBX 6 9 1 3
BITMAP
78
04
04
7C
84
8C
74
00
FC
ENDCHAR
STARTCHAR 00AB
ENCODING 171
SWIDTH 600 0
DWIDTH 10 0
BBX 8 8 1 1
BITMAP
11
33
66
CC
CC
66
33
11
ENDCHAR
STARTCHAR 00AC
ENCODING 172
SWIDTH 840 0
DWIDTH 14 0
BBX 11 5 2 2
BITMAP
FFE0
FFE0
0060
0060
0060
ENDCHAR
STARTCHAR 00AD
ENCODING 173
SWIDTH 360 0
DWIDTH 6 0
BBX 4 2 1 4
BITMAP
F0
F0
ENDCHAR
STARTCHAR 00AE
ENCODING 174
SWIDTH 1020 0
DWIDTH 17 0
BBX 12 12 2 0
BITMAP
0F00
30C0
4020
4E20
8910
8910
8E10
8A10
4920
4020
30C0
0F00
ENDCHAR
STARTCHAR 00AF
ENCODING 175
SWIDTH 540 0
DWIDTH 9 0
BBX 5 1 2 12
BITMAP
F8
ENDCHAR
STARTCHAR 00B0
ENCODING 176
SWIDTH 540 0
DWIDTH 9 0
BBX 5 5 2 7
BITMAP
70
88
88
88
70
ENDCHAR
STARTCHAR 00B1
ENCODING 177
SWIDTH 840 0
DWIDTH 14 0
BBX 12 10 1 0
BITMAP
0600
0600
0600
FFF0
FFF0
0600
0600
0600
FFF0
FFF0
ENDCHAR
STARTCHAR 00B2
ENCODING 178
SWIDTH 420 0
DWIDTH 7 0
BBX 5 7 1 5
BITMAP
F0
08
08
10
20
40
F8
ENDCHAR
STARTCHAR 00B3
ENCODING 179
SWIDTH 420 0
DWIDTH 7 0
BBX 5 7 1 5
BITMAP
F0
08
08
70
08
08
F0
ENDCHAR
STARTCHAR 00B4
ENCODING 180
SWIDTH 540 0
DWIDTH 9 0
BBX 4 3 3 11
BITMAP
30
60
C0
ENDCHAR
STARTCHAR 00B5
ENCODING 181
SWIDTH 660 0
DWIDTH 11 0
BBX 9 13 2 -4
BITMAP
C300
C300
C300
C300
C300
C300
C300
E700
FF80
C000
C000
C000
C000
ENDCHAR
STARTCHAR 00B6
ENCODING 182
SWIDTH 660 0
DWIDTH 11 0
BBX 8 14 1 -2
BITMAP
3F
79
F9
F9
F9
79
39
09
09
09
09
09
09
09
ENDCHAR
STARTCHAR 00B7
ENCODING 183
SWIDTH 300 0
DWIDTH 5 0
BBX 2 2 2 5
BITMAP
C0
C0
ENDCHAR
STARTCHAR 00B8
ENCODING 184
SWIDTH 540 0
DWIDTH 9 0
BBX 3 3 2 -3
BITMAP
40
60
E0
ENDCHAR
STARTCHAR 00B9
ENCODING 185
SWIDTH 420 0
DWIDTH 7 0
BBX 5 7 1 5
BITMAP
E0
20
20
20
20
20
F8
ENDCHAR
STARTCHAR 00BA
ENCODING 186
SWIDTH 480 0
DWIDTH 8 0
BBX 6 9 1 3
BITMAP
78
CC
84
84
84
CC
78
00
FC
ENDCHAR
STARTCHAR 00BB
ENCODING 187
SWIDTH 600 0
DWIDTH 10 0
BBX 8 8 2 1
BITMAP
88
CC
66
33
33
66
CC
88
ENDCHAR
STARTCHAR 00BC
ENCODING 188
SWIDTH 960 0
DWIDTH 16 0
BBX 15 12 1 0
BITMAP
E030
2020
2040
2040
2080
2104
F90C
0214
0424
0444
087E
1804
ENDCHAR
STARTCHAR 00BD
ENCODING 189
SWIDTH 960 0
DWIDTH 16 0
BBX 15 13 1 -1
BITMAP
E030
2020
2040
2040
2080
2100
F93C
0202
0402
0404
0808
1810
003E
ENDCHAR
STARTCHAR 00BE
ENCODING 190
SWIDTH 960 0
DWIDTH 16 0
BBX 15 12 1 0
BITMAP
F030
0820
0840
7040
0880
0904
F10C
0214
0424
0444
087E
1804
ENDCHAR
STARTCHAR 00BF
ENCODING 191
SWIDTH 540 0
DWIDTH 9 0
BBX 7 12 1 0
BITMAP
18
18
00
18
18
18
30
60
C0
C0
C2
7C
ENDCHAR
STARTCHAR 00C0
ENCODING 192
SWIDTH 660 0
DWIDTH 11 0
BBX 11 15 0 0
BITMAP
0C00
0600
0000
0E00
0E00
0E00
1B00
1B00
3180
3180
3F80
60C0
60C0
60C0
C060
ENDCHAR
STARTCHAR 00C1
ENCODING 193
SWIDTH 660 0
DWIDTH 11 0
BBX 11 15 0 0
BITMAP
0300
0600
0000
0E00
0E00
0E00
1B00
1B00
3180
3180
3F80
60C0
60C0
60C0
C060
ENDCHAR
STARTCHAR 00C2
ENCODING 194
SWIDTH 660 0
DWIDTH 11 0
BBX 11 15 0 0
BITMAP
0700
0D80
0000
0E00
0E00
0E00
1B00
1B00
3180
3180
3F80
60C0
60C0
60C0
C060
ENDCHAR
STARTCHAR 00C3
ENCODING 195
SWIDTH 660 0
DWIDTH 11 0
BBX 11 15 0 0
BITMAP
0E80
0B80
0000
0E00
0E00
0E00
1B00
1B00
3180
3180
3F80
60C0
60C0
60C0
C060
ENDCHAR
STARTCHAR 00C4
ENCODING 196
SWIDTH 660 0
DWIDTH 11 0
BBX 11 15 0 0
BITMAP
1980
1980
0000
0E00
0E00
0E00
1B00
1B00
3180
3180
3F80
60C0
60C0
60C0
C060
ENDCHAR
STARTCHAR 00C5
ENCODING 197
SWIDTH 660 0
DWIDTH 11 0
BBX 11 16 0 0
BITMAP
0E00
1100
1100
1100
0E00
0E00
1B00
1B00
1B00
3180
3180
3F80
60C0
60C0
60C0
C060
ENDCHAR
STARTCHAR 00C6
ENCODING 198
SWIDTH 960 0
DWIDTH 16 0
BBX 15 12 0 0
BITMAP
07FE
0D80
0D80
1980
1980
19FE
3180
3F80
6180
6180
6180
C1FE
ENDCHAR
STARTCHAR 00C7
ENCODING 199
SWIDTH 720 0
DWIDTH 12 0
BBX 10 15 1 -3
BITMAP
1F80
30C0
6000
C000
C000
C000
C000
C000
C000
6000
30C0
1F80
0400
0600
0E00
ENDCHAR
STARTCHAR 00C8
ENCODING 200
SWIDTH 660 0
DWIDTH 11 0
BBX 8 15 2 0
BITMAP
60
30
00
FF
C0
C0
C0
C0
FF
C0
C0
C0
C0
C0
FF
ENDCHAR
STARTCHAR 00C9
ENCODING 201
SWIDTH 660 0
DWIDTH 11 0
BBX 8 15 2 0
BITMAP
18
30
00
FF
C0
C0
C0
C0
FF
C0
C0
C0
C0
C0
FF
ENDCHAR
STARTCHAR 00CA
ENCODING 202
SWIDTH 660 0
DWIDTH 11 0
BBX 8 15 2 0
BITMAP
38
6C
00
FF
C0
C0
C0
C0
FF
C0
C0
C0
C0
C0
FF
ENDCHAR
STARTCHAR 00CB
ENCODING 203
SWIDTH 660 0
DWIDTH 11 0
BBX 8 15 2 0
BITMAP
CC
CC
00
FF
C0
C0
C0
C0
FF
C0
C0
C0
C0
C0
FF
ENDCHAR
STARTCHAR 00CC
ENCODING 204
SWIDTH 360 0
DWIDTH 6 0
BBX 4 15 0 0
BITMAP
C0
60
00
30
30
30
30
30
30
30
30
30
30
30
30
ENDCHAR
STARTCHAR 00CD
ENCODING 205
SWIDTH 360 0
DWIDTH 6 0
BBX 3 15 1 0
BITMAP
60
C0
00
60
60
60
60
60
60
60
60
60
60
60
60
ENDCHAR
STARTCHAR 00CE
ENCODING 206
SWIDTH 360 0
DWIDTH 6 0
BBX 5 15 0 0
BITMAP
70
D8
00
30
30
30
30
30
30
30
30
30
30
30
30
ENDCHAR
STARTCHAR 00CF
ENCODING 207
SWIDTH 360 0
DWIDTH 6 0
BBX 6 15 -1 0
BITMAP
CC
CC
00
18
18
18
18
18
18
18
18
18
18
18
18
ENDCHAR
STARTCHAR 00D0
ENCODING 208
SWIDTH 780 0
DWIDTH 13 0
BBX 12 12 0 0
BITMAP
3F80
30E0
3060
3030
3030
FE30
3030
3030
3030
3060
30E0
3F80
ENDCHAR
STARTCHAR 00D1
ENCODING 209
SWIDTH 780 0
DWIDTH 13 0
BBX 9 15 2 0
BITMAP
3A00
2E00
0000
C180
E180
E180
F180
D980
D980
CD80
CD80
C780
C780
C380
C180
ENDCHAR
STARTCHAR 00D2
ENCODING 210
SWIDTH 780 0
DWIDTH 13 0
BBX 11 15 1 0
BITMAP
1800
0C00
0000
1F00
3180
60C0
C060
C060
C060
C060
C060
C060
60C0
3180
1F00
ENDCHAR
STARTCHAR 00D3
ENCODING 211
SWIDTH 780 0
DWIDTH 13 0
BBX 11 15 1 0
BITMAP
0600
0C00
0000
1F00
3180
60C0
C060
C060
C060
C060
C060
C060
60C0
3180
1F00
ENDCHAR
STARTCHAR 00D4
ENCODING 212
SWIDTH 780 0
DWIDTH 13 0
BBX 11 15 1 0
BITMAP
0E00
1B00
0000
1F00
3180
60C0
C060
C060
C060
C060
C060
C060
60C0
3180
1F00
ENDCHAR
STARTCHAR 00D5
ENCODING 213
SWIDTH 780 0
DWIDTH 13 0
BBX 11 15 1 0
BITMAP
1D00
1700
0000
1F00
3180
60C0
C060
C060
C060
C060
C060
C060
60C0
3180
1F00
ENDCHAR
STARTCHAR 00D6
ENCODING 214
SWIDTH 780 0
DWIDTH 13 0
BBX 11 15 1 0
BITMAP
3300
3300
0000
1F00
3180
60C0
C060
C060
C060
C060
C060
C060
60C0
3180
1F00
ENDCHAR
STARTCHAR 00D7
ENCODING 215
SWIDTH 840 0
DWIDTH 14 0
BBX 10 10 2 0
BITMAP
4080
E1C0
7380
3F00
1E00
1E00
3F00
7380
E1C0
4080
ENDCHAR
STARTCHAR 00D8
ENCODING 216
SWIDTH 780 0
DWIDTH 13 0
BBX 11 12 1 0
BITMAP
1F60
31C0
60C0
C160
C260
C660
CC60
C860
D060
60C0
7180
DF00
ENDCHAR
STARTCHAR 00D9
ENCODING 217
SWIDTH 780 0
DWIDTH 13 0
BBX 9 15 2 0
BITMAP
3000
1800
0000
C180
C180
C180
C180
C180
C180
C180
C180
C180
C180
6300
3E00
ENDCHAR
STARTCHAR 00DA
ENCODING 218
SWIDTH 780 0
DWIDTH 13 0
BBX 9 15 2 0
BITMAP
0C00
1800
0000
C180
C180
C180
C180
C180
C180
C180
C180
C180
C180
6300
3E00
ENDCHAR
STARTCHAR 00DB
ENCODING 219
SWIDTH 780 0
DWIDTH 13 0
BBX 9 15 2 0
BITMAP
1C00
3600
0000
C180
C180
C180
C180
C180
C180
C180
C180
C180
C180
6300
3E00
ENDCHAR
STARTCHAR 00DC
ENCODING 220
SWIDTH 780 0
DWIDTH 13 0
BBX 9 15 2 0
BITMAP
6600
6600
0000
C180
C180
C180
C180
C180
C180
C180
C180
C180
C180
6300
3E00
ENDCHAR
STARTCHAR 00DD
ENCODING 221
SWIDTH 600 0
DWIDTH 10 0
BBX 10 15 0 0
BITMAP
0600
0C00
0000
E1C0
6180
3300
3300
1E00
0C00
0C00
0C00
0C00
0C00
0C00
0C00
ENDCHAR
STARTCHAR 00DE
ENCODING 222
SWIDTH 600 0
DWIDTH 10 0
BBX 8 12 2 0
BITMAP
C0
C0
FC
C6
C3
C3
C3
C6
FC
C0
C0
C0
ENDCHAR
STARTCHAR 00DF
ENCODING 223
SWIDTH 660 0
DWIDTH 11 0
BBX 8 13 2 0
BITMAP
7C
C4
C6
CE
D8
D8
D8
CC
C6
C3
C3
C3
DE
ENDCHAR
STARTCHAR 00E0
ENCODING 224
SWIDTH 600 0
DWIDTH 10 0
BBX 8 14 1 0
BITMAP
60
30
18
00
00
3E
47
03
3F
E3
C3
C3
C7
7B
ENDCHAR
STARTCHAR 00E1
ENCODING 225
SWIDTH 600 0
DWIDTH 10 0
BBX 8 14 1 0
BITMAP
06
0C
18
00
00
3E
47
03
3F
E3
C3
C3
C7
7B
ENDCHAR
STARTCHAR 00E2
ENCODING 226
SWIDTH 600 0
DWIDTH 10 0
BBX 8 14 1 0
BITMAP
08
14
22
00
00
3E
47
03
3F
E3
C3
C3
C7
7B
ENDCHAR
STARTCHAR 00E3
ENCODING 227
SWIDTH 600 0
DWIDTH 10 0
BBX 8 13 1 0
BITMAP
3A
2E
00
00
3E
47
03
3F
E3
C3
C3
C7
7B
ENDCHAR
STARTCHAR 00E4
ENCODING 228
SWIDTH 600 0
DWIDTH 10 0
BBX 8 13 1 0
BITMAP
33
33
00
00
3E
47
03
3F
E3
C3
C3
C7
7B
ENDCHAR
STARTCHAR 00E5
ENCODING 229
SWIDTH 600 0
DWIDTH 10 0
BBX 8 15 1 0
BITMAP
1C
22
22
22
1C
00
3E
47
03
3F
E3
C3
C3
C7
7B
ENDCHAR
STARTCHAR 00E6
ENCODING 230
SWIDTH 960 0
DWIDTH 16 0
BBX 14 9 1 0
BITMAP
3C70
4698
030C
3F0C
E3FC
C300
C300
C584
78F8
ENDCHAR
STARTCHAR 00E7
ENCODING 231
SWIDTH 480 0
DWIDTH 8 0
BBX 7 12 1 -3
BITMAP
3C
62
C0
C0
C0
C0
C0
62
3C
10
18
38
ENDCHAR
STARTCHAR 00E8
ENCODING 232
SWIDTH 600 0
DWIDTH 10 0
BBX 9 14 1 0
BITMAP
6000
3000
1800
0000
0000
3E00
6300
C180
C180
FF80
C000
C000
6080
1F00
ENDCHAR
STARTCHAR 00E9
ENCODING 233
SWIDTH 600 0
DWIDTH 10 0
BBX 9 14 1 0
BITMAP
0600
0C00
1800
0000
0000
3E00
6300
C180
C180
FF80
C000
C000
6080
1F00
ENDCHAR
STARTCHAR 00EA
ENCODING 234
SWIDTH 600 0
DWIDTH 10 0
BBX 9 14 1 0
BITMAP
0800
1400
2200
0000
0000
3E00
6300
C180
C180
FF80
C000
C000
6080
1F00
ENDCHAR
STARTCHAR 00EB
ENCODING 235
SWIDTH 600 0
DWIDTH 10 0
BBX 9 13 1 0
BITMAP
3300
3300
0000
0000
3E00
6300
C180
C180
FF80
C000
C000
6080
1F00
ENDCHAR
STARTCHAR 00EC
ENCODING 236
SWIDTH 300 0
DWIDTH 5 0
BBX 5 14 -1 0
BITMAP
C0
60
30
00
00
18
18
18
18
18
18
18
18
18
ENDCHAR
STARTCHAR 00ED
ENCODING 237
SWIDTH 300 0
DWIDTH 5 0
BBX 4 14 1 0
BITMAP
30
60
C0
00
00
60
60
60
60
60
60
60
60
60
ENDCHAR
STARTCHAR 00EE
ENCODING 238
SWIDTH 300 0
DWIDTH 5 0
BBX 5 14 0 0
BITMAP
20
50
88
00
00
30
30
30
30
30
30
30
30
30
ENDCHAR
STARTCHAR 00EF
ENCODING 239
SWIDTH 300 0
DWIDTH 5 0
BBX 6 13 0 0
BITMAP
CC
CC
00
00
30
30
30
30
30
30
30
30
30
ENDCHAR
STARTCHAR 00F0
ENCODING 240
SWIDTH 600 0
DWIDTH 10 0
BBX 9 13 1 0
BITMAP
3100
1E00
7800
0400
3E00
6300
C180
C180
C180
C180
C180
6300
3E00
ENDCHAR
STARTCHAR 00F1
ENCODING 241
SWIDTH 660 0
DWIDTH 11 0
BBX 8 13 2 0
BITMAP
74
5C
00
00
DE
E7
C3
C3
C3
C3
C3
C3
C3
ENDCHAR
STARTCHAR 00F2
ENCODING 242
SWIDTH 600 0
DWIDTH 10 0
BBX 9 14 1 0
BITMAP
6000
3000
1800
0000
0000
3E00
6300
C180
C180
C180
C180
C180
6300
3E00
ENDCHAR
STARTCHAR 00F3
ENCODING 243
SWIDTH 600 0
DWIDTH 10 0
BBX 9 14 1 0
BITMAP
0600
0C00
1800
0000
0000
3E00
6300
C180
C180
C180
C180
C180
6300
3E00
ENDCHAR
STARTCHAR 00F4
ENCODING 244
SWIDTH 600 0
DWIDTH 10 0
BBX 9 14 1 0
BITMAP
0800
1400
2200
0000
0000
3E00
6300
C180
C180
C180
C180
C180
6300
3E00
ENDCHAR
STARTCHAR 00F5
ENCODING 245
SWIDTH 600 0
DWIDTH 10 0
BBX 9 13 1 0
BITMAP
3A00
2E00
0000
0000
3E00
6300
C180
C180
C180
C180
C180
6300
3E00
ENDCHAR
STARTCHAR 00F6
ENCODING 246
SWIDTH 600 0
DWIDTH 10 0
BBX 9 13 1 0
BITMAP
3300
3300
0000
0000
3E00
6300
C180
C180
C180
C180
C180
6300
3E00
ENDCHAR
STARTCHAR 00F7
ENCODING 247
SWIDTH 840 0
DWIDTH 14 0
BBX 10 8 2 2
BITMAP
0C00
0C00
0000
FFC0
FFC0
0000
0C00
0C00
ENDCHAR
STARTCHAR 00F8
ENCODING 248
SWIDTH 600 0
DWIDTH 10 0
BBX 9 11 1 -1
BITMAP
0080
3F80
6300
C780
C580
C980
D180
F180
6300
FE00
8000
ENDCHAR
STARTCHAR 00F9
ENCODING 249
SWIDTH 660 0
DWIDTH 11 0
BBX 8 14 2 0
BITMAP
C0
60
30
00
00
C3
C3
C3
C3
C3
C3
C3
E7
7B
ENDCHAR
STARTCHAR 00FA
ENCODING 250
SWIDTH 660 0
DWIDTH 11 0
BBX 8 14 2 0
BITMAP
0C
18
30
00
00
C3
C3
C3
C3
C3
C3
C3
E7
7B
ENDCHAR
STARTCHAR 00FB
ENCODING 251
SWIDTH 660 0
DWIDTH 11 0
BBX 8 14 2 0
BITMAP
10
28
44
00
00
C3
C3
C3
C3
C3
C3
C3
E7
7B
ENDCHAR
STARTCHAR 00FC
ENCODING 252
SWIDTH 660 0
DWIDTH 11 0
BBX 8 13 2 0
BITMAP
66
66
00
00
C3
C3
C3
C3
C3
C3
C3
E7
7B
ENDCHAR
STARTCHAR 00FD
ENCODING 253
SWIDTH 600 0
DWIDTH 10 0
BBX 9 18 1 -4
BITMAP
0600
0C00
1800
0000
0000
C180
C180
6300
6300
3300
3600
1E00
1C00
0C00
0C00
1800
1800
7000
ENDCHAR
STARTCHAR 00FE
ENCODING 254
SWIDTH 600 0
DWIDTH 10 0
BBX 8 17 2 -4
BITMAP
C0
C0
C0
C0
DC
E6
C3
C3
C3
C3
C3
E6
DC
C0
C0
C0
C0
ENDCHAR
STARTCHAR 00FF
ENCODING 255
SWIDTH 600 0
DWIDTH 10 0
BBX 9 17 1 -4
BITMAP
3300
3300
0000
0000
C180
C180
6300
6300
3300
3600
1E00
1C00
0C00
0C00
1800
1800
7000
ENDCHAR
STARTCHAR 0106
ENCODING 262
SWIDTH 720 0
DWIDTH 12 0
BBX 10 15 1 0
BITMAP
0300
0600
0000
1F80
30C0
6000
C000
C000
C000
C000
C000
C000
6000
30C0
1F80
ENDCHAR
STARTCHAR 0107
ENCODING 263
SWIDTH 480 0
DWIDTH 8 0
BBX 7 14 1 0
BITMAP
06
0C
18
00
00
3C
62
C0
C0
C0
C0
C0
62
3C
ENDCHAR
STARTCHAR 010C
ENCODING 268
SWIDTH 720 0
DWIDTH 12 0
BBX 10 15 1 0
BITMAP
0D80
0700
0000
1F80
30C0
6000
C000
C000
C000
C000
C000
C000
6000
30C0
1F80
ENDCHAR
STARTCHAR 010D
ENCODING 269
SWIDTH 480 0
DWIDTH 8 0
BBX 7 14 1 0
BITMAP
22
14
08
00
00
3C
62
C0
C0
C0
C0
C0
62
3C
ENDCHAR
STARTCHAR 0111
ENCODING 273
SWIDTH 600 0
DWIDTH 10 0
BBX 9 13 1 0
BITMAP
0300
0300
1F80
0300
3B00
6700
C300
C300
C300
C300
C300
6700
3B00
ENDCHAR
STARTCHAR 011E
ENCODING 286
SWIDTH 780 0
DWIDTH 13 0
BBX 11 15 1 0
BITMAP
1100
0E00
0000
1FC0
3060
6020
C000
C000
C000
C3E0
C060
C060
6060
3060
1FC0
ENDCHAR
STARTCHAR 011F
ENCODING 287
SWIDTH 600 0
DWIDTH 10 0
BBX 8 17 1 -4
BITMAP
22
1C
00
00
3B
67
C3
C3
C3
C3
C3
67
3B
03
03
46
3C
ENDCHAR
STARTCHAR 0130
ENCODING 304
SWIDTH 360 0
DWIDTH 6 0
BBX 3 15 1 0
BITMAP
C0
C0
00
60
60
60
60
60
60
60
60
60
60
60
60
ENDCHAR
STARTCHAR 0131
ENCODING 305
SWIDTH 300 0
DWIDTH 5 0
BBX 2 9 2 0
BITMAP
C0
C0
C0
C0
C0
C0
C0
C0
C0
ENDCHAR
STARTCHAR 0141
ENCODING 321
SWIDTH 600 0
DWIDTH 10 0
BBX 10 12 0 0
BITMAP
3000
3000
3000
3200
3600
3800
3000
F000
3000
3000
3000
3FC0
ENDCHAR
STARTCHAR 0142
ENCODING 322
SWIDTH 300 0
DWIDTH 5 0
BBX 6 13 0 0
BITMAP
30
30
30
30
30
3C
70
F0
30
30
30
30
30
ENDCHAR
STARTCHAR 0152
ENCODING 338
SWIDTH 1080 0
DWIDTH 18 0
BBX 16 12 1 0
BITMAP
0FFF
30C0
60C0
C0C0
C0C0
C0FF
C0C0
C0C0
C0C0
60C0
30C0
0FFF
ENDCHAR
STARTCHAR 0153
ENCODING 339
SWIDTH 1020 0
DWIDTH 17 0
BBX 16 9 1 0
BITMAP
3E3C
63C6
C183
C183
C1FF
C180
C180
63C1
3E3E
ENDCHAR
STARTCHAR 015E
ENCODING 350
SWIDTH 660 0
DWIDTH 11 0
BBX 9 15 1 -3
BITMAP
3E00
6300
C000
C000
F000
7E00
0F00
0180
0180
8180
C300
7E00
1000
1800
3800
ENDCHAR
STARTCHAR 015F
ENCODING 351
SWIDTH 480 0
DWIDTH 8 0
BBX 7 12 1 -3
BITMAP
7C
C2
C0
F0
7C
0E
06
86
7C
20
30
70
ENDCHAR
STARTCHAR 0160
ENCODING 352
SWIDTH 660 0
DWIDTH 11 0
BBX 9 15 1 0
BITMAP
3600
1C00
0000
3E00
6300
C000
C000
F000
7E00
0F00
0180
0180
8180
C300
7E00
ENDCHAR
STARTCHAR 0161
ENCODING 353
SWIDTH 480 0
DWIDTH 8 0
BBX 7 14 1 0
BITMAP
44
28
10
00
00
7C
C2
C0
F0
7C
0E
06
86
7C
ENDCHAR
STARTCHAR 0178
ENCODING 376
SWIDTH 600 0
DWIDTH 10 0
BBX 10 15 0 0
BITMAP
3300
3300
0000
E1C0
6180
3300
3300
1E00
0C00
0C00
0C00
0C00
0C00
0C00
0C00
ENDCHAR
STARTCHAR 017D
ENCODING 381
SWIDTH 720 0
DWIDTH 12 0
BBX 10 15 1 0
BITMAP
1B00
0E00
0000
FFC0
01C0
0380
0300
0600
0E00
1C00
1800
3000
7000
E000
FFC0
ENDCHAR
STARTCHAR 017E
ENCODING 382
SWIDTH 480 0
DWIDTH 8 0
BBX 7 14 1 0
BITMAP
44
28
10
00
00
FE
0E
0C
18
38
30
60
E0
FE
ENDCHAR
STARTCHAR 0192
ENCODING 402
SWIDTH 660 0
DWIDTH 11 0
BBX 10 17 0 -4
BITMAP
01C0
0200
0600
0600
0600
0400
1F80
0C00
0C00
0C00
0C00
0C00
0C00
0C00
1800
1800
F000
ENDCHAR
STARTCHAR 02C6
ENCODING 710
SWIDTH 540 0
DWIDTH 9 0
BBX 5 3 2 11
BITMAP
20
50
88
ENDCHAR
STARTCHAR 02C7
ENCODING 711
SWIDTH 540 0
DWIDTH 9 0
BBX 5 3 2 11
BITMAP
88
50
20
ENDCHAR
STARTCHAR 02D8
ENCODING 728
SWIDTH 540 0
DWIDTH 9 0
BBX 5 2 2 11
BITMAP
88
70
ENDCHAR
STARTCHAR 02D9
ENCODING 729
SWIDTH 540 0
DWIDTH 9 0
BBX 2 2 3 11
BITMAP
C0
C0
ENDCHAR
STARTCHAR 02DA
ENCODING 730
SWIDTH 540 0
DWIDTH 9 0
BBX 5 5 2 10
BITMAP
70
88
88
88
70
ENDCHAR
STARTCHAR 02DB
ENCODING 731
SWIDTH 540 0
DWIDTH 9 0
BBX 3 3 3 -3
BITMAP
40
C0
E0
ENDCHAR
STARTCHAR 02DC
ENCODING 732
SWIDTH 540 0
DWIDTH 9 0
BBX 5 2 2 11
BITMAP
E8
B8
ENDCHAR
STARTCHAR 02DD
ENCODING 733
SWIDTH 540 0
DWIDTH 9 0
BBX 6 3 2 11
BITMAP
6C
48
90
ENDCHAR
STARTCHAR 03A9
ENCODING 937
SWIDTH 780 0
DWIDTH 13 0
BBX 11 12 1 0
BITMAP
1F00
3180
60C0
C060
C060
C060
C060
C060
60C0
60C0
3180
FBE0
ENDCHAR
STARTCHAR 03C0
ENCODING 960
SWIDTH 600 0
DWIDTH 10 0
BBX 10 9 0 0
BITMAP
7FC0
A300
2300
2300
2200
6600
6600
4600
4380
ENDCHAR
STARTCHAR 2013
ENCODING 8211
SWIDTH 540 0
DWIDTH 9 0
BBX 9 1 0 4
BITMAP
FF80
ENDCHAR
STARTCHAR 2014
ENCODING 8212
SWIDTH 1020 0
DWIDTH 17 0
BBX 17 1 0 4
BITMAP
FFFF80
ENDCHAR
STARTCHAR 2018
ENCODING 8216
SWIDTH 300 0
DWIDTH 5 0
BBX 3 4 1 8
BITMAP
20
40
C0
C0
ENDCHAR
STARTCHAR 2019
ENCODING 8217
SWIDTH 300 0
DWIDTH 5 0
BBX 3 4 1 8
BITMAP
60
60
40
80
ENDCHAR
STARTCHAR 201A
ENCODING 8218
SWIDTH 300 0
DWIDTH 5 0
BBX 3 4 1 -2
BITMAP
60
60
40
80
ENDCHAR
STARTCHAR 201C
ENCODING 8220
SWIDTH 540 0
DWIDTH 9 0
BBX 7 4 1 8
BITMAP
22
44
CC
CC
ENDCHAR
STARTCHAR 201D
ENCODING 8221
SWIDTH 540 0
DWIDTH 9 0
BBX 7 4 1 8
BITMAP
66
66
44
88
ENDCHAR
STARTCHAR 201E
ENCODING 8222
SWIDTH 540 0
DWIDTH 9 0
BBX 7 4 1 -2
BITMAP
66
66
44
88
ENDCHAR
STARTCHAR 2020
ENCODING 8224
SWIDTH 540 0
DWIDTH 9 0
BBX 8 14 1 -2
BITMAP
18
18
18
FF
18
18
18
18
18
18
18
18
18
18
ENDCHAR
STARTCHAR 2021
ENCODING 8225
SWIDTH 540 0
DWIDTH 9 0
BBX 8 14 1 -2
BITMAP
18
18
18
FF
18
18
18
18
18
18
FF
18
18
18
ENDCHAR
STARTCHAR 2022
ENCODING 8226
SWIDTH 600 0
DWIDTH 10 0
BBX 5 5 3 4
BITMAP
70
F8
F8
F8
70
ENDCHAR
STARTCHAR 2026
ENCODING 8230
SWIDTH 1020 0
DWIDTH 17 0
BBX 14 2 2 0
BITMAP
C30C
C30C
ENDCHAR
STARTCHAR 2030
ENCODING 8240
SWIDTH 1380 0
DWIDTH 23 0
BBX 21 12 1 0
BITMAP
782000
CC4000
CC4000
CC8000
CD0000
CD78F0
7ACD98
02CD98
04CD98
08CD98
08CD98
1078F0
ENDCHAR
STARTCHAR 2039
ENCODING 8249
SWIDTH 420 0
DWIDTH 7 0
BBX 4 8 1 1
BITMAP
10
30
60
C0
C0
60
30
10
ENDCHAR
STARTCHAR 203A
ENCODING 8250
SWIDTH 420 0
DWIDTH 7 0
BBX 4 8 2 1
BITMAP
80
C0
60
30
30
60
C0
80
ENDCHAR
STARTCHAR 20AC
ENCODING 8364
SWIDTH 660 0
DWIDTH 11 0
BBX 10 12 0 0
BITMAP
0780
1C40
1800
3000
FF80
3000
3000
FF00
3000
1800
1C40
0780
ENDCHAR
STARTCHAR 2122
ENCODING 8482
SWIDTH 1020 0
DWIDTH 17 0
BBX 12 5 2 7
BITMAP
FB30
23F0
22D0
2210
2210
ENDCHAR
STARTCHAR 2202
ENCODING 8706
SWIDTH 540 0
DWIDTH 9 0
BBX 7 11 1 0
BITMAP
1C
34
02
02
3A
66
C6
C6
C4
CC
78
ENDCHAR
STARTCHAR 2206
ENCODING 8710
SWIDTH 660 0
DWIDTH 11 0
BBX 11 12 0 0
BITMAP
0E00
0E00
0A00
1B00
1300
3100
3180
2080
60C0
60C0
4040
FFE0
ENDCHAR
STARTCHAR 220F
ENCODING 8719
SWIDTH 780 0
DWIDTH 13 0
BBX 10 15 1 -3
BITMAP
FFC0
C0C0
C0C0
C0C0
C0C0
C0C0
C0C0
C0C0
C0C0
C0C0
C0C0
C0C0
C0C0
C0C0
C0C0
ENDCHAR
STARTCHAR 2211
ENCODING 8721
SWIDTH 660 0
DWIDTH 11 0
BBX 11 15 0 -3
BITMAP
FFE0
C000
6000
3000
1800
0C00
0600
0300
0600
0C00
1800
3000
6000
C000
FFE0
ENDCHAR
STARTCHAR 2212
ENCODING 8722
SWIDTH 840 0
DWIDTH 14 0
BBX 11 2 2 5
BITMAP
FFE0
FFE0
ENDCHAR
STARTCHAR 2215
ENCODING 8725
SWIDTH 180 0
DWIDTH 3 0
BBX 9 12 -3 0
BITMAP
0180
0100
0200
0200
0400
0800
0800
1000
2000
2000
4000
C000
ENDCHAR
STARTCHAR 2219
ENCODING 8729
SWIDTH 300 0
DWIDTH 5 0
BBX 2 2 2 5
BITMAP
C0
C0
ENDCHAR
STARTCHAR 221A
ENCODING 8730
SWIDTH 660 0
DWIDTH 11 0
BBX 10 14 1 0
BITMAP
00C0
0080
0080
0100
0100
0200
4200
E200
2400
3400
3400
1800
1800
1000
ENDCHAR
STARTCHAR 221E
ENCODING 8734
SWIDTH 840 0
DWIDTH 14 0
BBX 11 6 2 3
BITMAP
71C0
CA20
8420
8420
CA60
71C0
ENDCHAR
STARTCHAR 222B
ENCODING 8747
SWIDTH 540 0
DWIDTH 9 0
BBX 8 16 1 -3
BITMAP
07
0C
08
18
18
18
18
18
18
18
18
18
18
10
30
E0
ENDCHAR
STARTCHAR 2248
ENCODING 8776
SWIDTH 840 0
DWIDTH 14 0
BBX 11 7 2 2
BITMAP
7C20
FFE0
87C0
0000
7C20
FFE0
87C0
ENDCHAR
STARTCHAR 2260
ENCODING 8800
SWIDTH 840 0
DWIDTH 14 0
BBX 11 12 2 -1
BITMAP
0080
00C0
0180
FFE0
FFE0
0600
0C00
FFE0
FFE0
3000
6000
2000
ENDCHAR
STARTCHAR 2264
ENCODING 8804
SWIDTH 840 0
DWIDTH 14 0
BBX 11 10 2 0
BITMAP
0060
03E0
1FC0
FC00
FC00
1FC0
03E0
0060
FFE0
FFE0
ENDCHAR
STARTCHAR 2265
ENCODING 8805
SWIDTH 840 0
DWIDTH 14 0
BBX 11 10 2 0
BITMAP
C000
F800
7F00
07E0
07E0
7F00
F800
C000
FFE0
FFE0
ENDCHAR
STARTCHAR 25CA
ENCODING 9674
SWIDTH 480 0
DWIDTH 8 0
BBX 8 16 0 -3
BITMAP
18
18
24
24
44
42
42
81
81
42
42
44
24
24
18
18
ENDCHAR
STARTCHAR FB01
ENCODING 64257
SWIDTH 600 0
DWIDTH 10 0
BBX 8 13 1 0
BITMAP
3B
63
60
60
FF
63
63
63
63
63
63
63
63
ENDCHAR
STARTCHAR FB02
ENCODING 64258
SWIDTH 600 0
DWIDTH 10 0
BBX 8 13 1 0
BITMAP
3F
63
63
63
FB
63
63
63
63
63
63
63
63
ENDCHAR
ENDFONT
